<svg width="72" height="69" viewBox="0 0 72 69" fill="none" xmlns="http://www.w3.org/2000/svg">
<path d="M0.499997 34.5C0.499995 15.7422 16.3736 0.500005 36 0.500003C55.6264 0.500001 71.5 15.7422 71.5 34.5C71.5 53.2578 55.6264 68.5 36 68.5C16.3736 68.5 0.499999 53.2578 0.499997 34.5Z" fill="white" stroke="#BCBCBC"/>
<path d="M47.7076 35.7071C48.0981 35.3166 48.0981 34.6834 47.7076 34.2929L41.3436 27.9289C40.9531 27.5384 40.3199 27.5384 39.9294 27.9289C39.5389 28.3195 39.5389 28.9526 39.9294 29.3431L45.5863 35L39.9294 40.6569C39.5389 41.0474 39.5389 41.6805 39.9294 42.0711C40.3199 42.4616 40.9531 42.4616 41.3436 42.0711L47.7076 35.7071ZM24.0005 36L47.0005 36L47.0005 34L24.0005 34L24.0005 36Z" fill="#A5A5A5"/>
</svg>
