<svg width="72" height="69" viewBox="0 0 72 69" fill="none" xmlns="http://www.w3.org/2000/svg">
<path d="M71.5 34.5C71.5 53.2578 55.6264 68.5 36 68.5C16.3736 68.5 0.5 53.2578 0.5 34.5C0.5 15.7422 16.3736 0.5 36 0.5C55.6264 0.5 71.5 15.7422 71.5 34.5Z" fill="white" stroke="#BCBCBC"/>
<path d="M25.2929 34.2929C24.9024 34.6834 24.9024 35.3166 25.2929 35.7071L31.6569 42.0711C32.0474 42.4616 32.6805 42.4616 33.0711 42.0711C33.4616 41.6805 33.4616 41.0474 33.0711 40.6569L27.4142 35L33.0711 29.3431C33.4616 28.9526 33.4616 28.3195 33.0711 27.9289C32.6805 27.5384 32.0474 27.5384 31.6569 27.9289L25.2929 34.2929ZM49 34L26 34L26 36L49 36L49 34Z" fill="#A5A5A5"/>
</svg>
